<mxfile host="Electron" agent="Mozilla/5.0 (Windows NT 10.0; Win64; x64) AppleWebKit/537.36 (KHTML, like Gecko) draw.io/28.1.2 Chrome/138.0.7204.243 Electron/37.4.0 Safari/537.36" version="28.1.2">
  <diagram name="Page-1" id="_ajMvyRLt3zIz2ziQU92">
    <mxGraphModel dx="1042" dy="722" grid="1" gridSize="10" guides="1" tooltips="1" connect="1" arrows="1" fold="1" page="1" pageScale="1" pageWidth="850" pageHeight="1100" math="0" shadow="0">
      <root>
        <mxCell id="0" />
        <mxCell id="1" parent="0" />
        <mxCell id="GtEoEZjL_DG4ub1cVma6-1" value="" style="rounded=0;whiteSpace=wrap;html=1;strokeColor=default;fillColor=none;dashed=1;" vertex="1" parent="1">
          <mxGeometry x="40" y="120" width="120" height="390" as="geometry" />
        </mxCell>
        <mxCell id="GtEoEZjL_DG4ub1cVma6-2" value="&lt;font style=&quot;font-size: 15px;&quot;&gt;Sources&lt;/font&gt;" style="rounded=1;whiteSpace=wrap;html=1;dashed=1;fillColor=default;strokeColor=none;" vertex="1" parent="1">
          <mxGeometry x="58.75" y="100" width="72.5" height="30" as="geometry" />
        </mxCell>
        <mxCell id="GtEoEZjL_DG4ub1cVma6-3" value="" style="rounded=0;whiteSpace=wrap;html=1;strokeColor=default;fillColor=none;dashed=1;" vertex="1" parent="1">
          <mxGeometry x="200" y="120" width="430" height="390" as="geometry" />
        </mxCell>
        <mxCell id="GtEoEZjL_DG4ub1cVma6-4" value="&lt;font style=&quot;font-size: 15px;&quot;&gt;Data Warehouse&lt;/font&gt;" style="rounded=1;whiteSpace=wrap;html=1;dashed=1;fillColor=default;strokeColor=none;" vertex="1" parent="1">
          <mxGeometry x="348.44" y="100" width="103.12" height="40" as="geometry" />
        </mxCell>
        <mxCell id="GtEoEZjL_DG4ub1cVma6-5" value="" style="rounded=0;whiteSpace=wrap;html=1;strokeColor=default;fillColor=none;dashed=1;" vertex="1" parent="1">
          <mxGeometry x="670" y="120" width="110" height="390" as="geometry" />
        </mxCell>
        <mxCell id="GtEoEZjL_DG4ub1cVma6-7" value="&lt;font style=&quot;font-size: 15px;&quot;&gt;Consume&lt;/font&gt;" style="rounded=1;whiteSpace=wrap;html=1;dashed=1;fillColor=default;strokeColor=none;" vertex="1" parent="1">
          <mxGeometry x="688.75" y="105" width="72.5" height="30" as="geometry" />
        </mxCell>
        <mxCell id="GtEoEZjL_DG4ub1cVma6-8" value="&lt;b&gt;Bronze Layer&lt;/b&gt;" style="rounded=0;whiteSpace=wrap;html=1;fillColor=#FFB570;fontColor=#ffffff;strokeColor=#6D1F00;fontSize=15;" vertex="1" parent="1">
          <mxGeometry x="240" y="160" width="90" height="40" as="geometry" />
        </mxCell>
        <mxCell id="GtEoEZjL_DG4ub1cVma6-9" value="" style="rounded=0;whiteSpace=wrap;html=1;fillColor=none;fontColor=#ffffff;strokeColor=#FFB570;" vertex="1" parent="1">
          <mxGeometry x="240" y="210" width="90" height="250" as="geometry" />
        </mxCell>
        <mxCell id="GtEoEZjL_DG4ub1cVma6-10" value="&lt;b&gt;Silver Layer&lt;/b&gt;" style="rounded=0;whiteSpace=wrap;html=1;fillColor=#f5f5f5;strokeColor=#666666;fontSize=15;fontColor=#333333;" vertex="1" parent="1">
          <mxGeometry x="361.56" y="160" width="90" height="40" as="geometry" />
        </mxCell>
        <mxCell id="GtEoEZjL_DG4ub1cVma6-11" value="" style="rounded=0;whiteSpace=wrap;html=1;fillColor=none;strokeColor=#666666;fontColor=#333333;" vertex="1" parent="1">
          <mxGeometry x="361.56" y="210" width="90" height="250" as="geometry" />
        </mxCell>
        <mxCell id="GtEoEZjL_DG4ub1cVma6-12" value="" style="rounded=0;whiteSpace=wrap;html=1;fillColor=none;strokeColor=#BD7000;fontColor=#000000;" vertex="1" parent="1">
          <mxGeometry x="485" y="210" width="90" height="250" as="geometry" />
        </mxCell>
        <mxCell id="GtEoEZjL_DG4ub1cVma6-13" value="&lt;b&gt;Gold Layer&lt;/b&gt;" style="rounded=0;whiteSpace=wrap;html=1;fillColor=#f0a30a;strokeColor=#BD7000;fontSize=15;fontColor=#000000;" vertex="1" parent="1">
          <mxGeometry x="485" y="160" width="90" height="40" as="geometry" />
        </mxCell>
        <mxCell id="GtEoEZjL_DG4ub1cVma6-15" value="&lt;b&gt;CRM&lt;/b&gt;" style="image;aspect=fixed;html=1;points=[];align=center;fontSize=12;image=img/lib/azure2/general/Folder_Blank.svg;" vertex="1" parent="1">
          <mxGeometry x="70" y="210" width="49.29" height="40" as="geometry" />
        </mxCell>
        <mxCell id="GtEoEZjL_DG4ub1cVma6-16" value="&lt;b&gt;ERP&lt;/b&gt;" style="image;aspect=fixed;html=1;points=[];align=center;fontSize=12;image=img/lib/azure2/general/Folder_Blank.svg;" vertex="1" parent="1">
          <mxGeometry x="70" y="330" width="49.29" height="40" as="geometry" />
        </mxCell>
        <mxCell id="GtEoEZjL_DG4ub1cVma6-17" value="" style="image;aspect=fixed;html=1;points=[];align=center;fontSize=12;image=img/lib/azure2/general/Files.svg;" vertex="1" parent="1">
          <mxGeometry x="101" y="230" width="18.29" height="20" as="geometry" />
        </mxCell>
        <mxCell id="GtEoEZjL_DG4ub1cVma6-18" value="" style="image;aspect=fixed;html=1;points=[];align=center;fontSize=12;image=img/lib/azure2/general/Files.svg;" vertex="1" parent="1">
          <mxGeometry x="101" y="350" width="18.29" height="20" as="geometry" />
        </mxCell>
        <mxCell id="GtEoEZjL_DG4ub1cVma6-24" value="&lt;b&gt;Object Type&lt;/b&gt; : CSV files" style="rounded=0;whiteSpace=wrap;html=1;fillColor=none;strokeColor=none;" vertex="1" parent="1">
          <mxGeometry x="40" y="410" width="120" height="60" as="geometry" />
        </mxCell>
        <mxCell id="GtEoEZjL_DG4ub1cVma6-25" value="" style="html=1;verticalLabelPosition=bottom;align=center;labelBackgroundColor=#ffffff;verticalAlign=top;strokeWidth=2;strokeColor=#FFB570;shadow=0;dashed=0;shape=mxgraph.ios7.icons.data;fillColor=default;" vertex="1" parent="1">
          <mxGeometry x="266.5" y="310.9" width="37" height="39.1" as="geometry" />
        </mxCell>
        <mxCell id="GtEoEZjL_DG4ub1cVma6-28" value="Buisness Ready Data" style="text;html=1;align=center;verticalAlign=middle;whiteSpace=wrap;rounded=0;" vertex="1" parent="1">
          <mxGeometry x="495" y="350" width="70" height="30" as="geometry" />
        </mxCell>
        <mxCell id="GtEoEZjL_DG4ub1cVma6-29" value="Cleaned, Standardized Data&lt;div&gt;&lt;br&gt;&lt;/div&gt;" style="text;html=1;align=center;verticalAlign=middle;whiteSpace=wrap;rounded=0;" vertex="1" parent="1">
          <mxGeometry x="359.25" y="360" width="90" height="30" as="geometry" />
        </mxCell>
        <mxCell id="GtEoEZjL_DG4ub1cVma6-30" value="Raw Data" style="text;html=1;align=center;verticalAlign=middle;whiteSpace=wrap;rounded=0;" vertex="1" parent="1">
          <mxGeometry x="249.25" y="350" width="71.5" height="30" as="geometry" />
        </mxCell>
        <mxCell id="GtEoEZjL_DG4ub1cVma6-32" value="" style="html=1;verticalLabelPosition=bottom;align=center;labelBackgroundColor=#ffffff;verticalAlign=top;strokeWidth=2;strokeColor=#d6b656;shadow=0;dashed=0;shape=mxgraph.ios7.icons.data;fillColor=default;" vertex="1" parent="1">
          <mxGeometry x="511.5" y="308.18" width="37" height="39.1" as="geometry" />
        </mxCell>
        <mxCell id="GtEoEZjL_DG4ub1cVma6-35" value="" style="shape=singleArrow;whiteSpace=wrap;html=1;" vertex="1" parent="1">
          <mxGeometry x="140" y="275.45" width="70.71" height="30" as="geometry" />
        </mxCell>
        <mxCell id="GtEoEZjL_DG4ub1cVma6-36" value="" style="shape=singleArrow;whiteSpace=wrap;html=1;" vertex="1" parent="1">
          <mxGeometry x="330" y="275.45" width="35.75" height="30" as="geometry" />
        </mxCell>
        <mxCell id="GtEoEZjL_DG4ub1cVma6-39" value="" style="shape=singleArrow;whiteSpace=wrap;html=1;" vertex="1" parent="1">
          <mxGeometry x="618.04" y="275.45" width="70.71" height="30" as="geometry" />
        </mxCell>
        <mxCell id="GtEoEZjL_DG4ub1cVma6-40" value="" style="shape=singleArrow;whiteSpace=wrap;html=1;" vertex="1" parent="1">
          <mxGeometry x="449.25" y="275.45" width="35.75" height="30" as="geometry" />
        </mxCell>
        <mxCell id="GtEoEZjL_DG4ub1cVma6-41" value="" style="shadow=0;dashed=0;html=1;strokeColor=none;fillColor=#EF8F21;labelPosition=center;verticalLabelPosition=bottom;verticalAlign=top;align=center;outlineConnect=0;shape=mxgraph.veeam.reporting;" vertex="1" parent="1">
          <mxGeometry x="700" y="170" width="47.4" height="50" as="geometry" />
        </mxCell>
        <mxCell id="GtEoEZjL_DG4ub1cVma6-42" value="" style="sketch=0;points=[[0,0,0],[0.25,0,0],[0.5,0,0],[0.75,0,0],[1,0,0],[0,1,0],[0.25,1,0],[0.5,1,0],[0.75,1,0],[1,1,0],[0,0.25,0],[0,0.5,0],[0,0.75,0],[1,0.25,0],[1,0.5,0],[1,0.75,0]];outlineConnect=0;fontColor=#232F3E;fillColor=#8C4FFF;strokeColor=#ffffff;dashed=0;verticalLabelPosition=bottom;verticalAlign=top;align=center;html=1;fontSize=12;fontStyle=0;aspect=fixed;shape=mxgraph.aws4.resourceIcon;resIcon=mxgraph.aws4.sql_workbench;" vertex="1" parent="1">
          <mxGeometry x="700" y="275.45" width="53.5" height="53.5" as="geometry" />
        </mxCell>
        <mxCell id="GtEoEZjL_DG4ub1cVma6-44" value="" style="points=[];aspect=fixed;html=1;align=center;shadow=0;dashed=0;fillColor=#FF6A00;strokeColor=none;shape=mxgraph.alibaba_cloud.machine_learning;" vertex="1" parent="1">
          <mxGeometry x="697.6" y="390" width="49.8" height="50.099999999999994" as="geometry" />
        </mxCell>
        <mxCell id="GtEoEZjL_DG4ub1cVma6-45" value="BI &amp;amp; Reporting" style="text;html=1;align=center;verticalAlign=middle;whiteSpace=wrap;rounded=0;" vertex="1" parent="1">
          <mxGeometry x="681.25" y="220" width="87.5" height="30" as="geometry" />
        </mxCell>
        <mxCell id="GtEoEZjL_DG4ub1cVma6-46" value="Ad-hoc SQL queries&amp;nbsp;" style="text;html=1;align=center;verticalAlign=middle;whiteSpace=wrap;rounded=0;" vertex="1" parent="1">
          <mxGeometry x="683" y="328.95" width="87.5" height="30" as="geometry" />
        </mxCell>
        <mxCell id="GtEoEZjL_DG4ub1cVma6-47" value="Machine Learning" style="text;html=1;align=center;verticalAlign=middle;whiteSpace=wrap;rounded=0;" vertex="1" parent="1">
          <mxGeometry x="679.95" y="440" width="87.5" height="30" as="geometry" />
        </mxCell>
        <mxCell id="GtEoEZjL_DG4ub1cVma6-48" value="" style="html=1;verticalLabelPosition=bottom;align=center;labelBackgroundColor=#ffffff;verticalAlign=top;strokeWidth=2;strokeColor=#666666;shadow=0;dashed=0;shape=mxgraph.ios7.icons.data;fillColor=default;fontColor=#333333;" vertex="1" parent="1">
          <mxGeometry x="381.5" y="308.18" width="37" height="39.1" as="geometry" />
        </mxCell>
      </root>
    </mxGraphModel>
  </diagram>
</mxfile>
